<svg xmlns="http://www.w3.org/2000/svg" width="176.253" height="78.13" viewBox="0 0 176.253 78.13">
  <g id="Group_508" data-name="Group 508" transform="translate(-144.849 -328.883)">
    <ellipse id="circle" cx="39.58" cy="39.065" rx="39.58" ry="39.065" transform="translate(144.849 328.883)" fill="#ec411b"/>
    <g id="leaf_group" data-name="leaf group" transform="translate(184.345 329.59)">
      <path id="Path_625" data-name="Path 625" d="M212.83,368.624,251.7,330.256c-11.278-.919-21.795,2.132-29.254,9.495S211.9,357.493,212.83,368.624Z" transform="translate(-212.669 -330.097)" fill="#dad800"/>
      <path id="Path_626" data-name="Path 626" d="M242.2,359.244c7.46-7.362,10.551-17.742,9.62-28.874l-38.874,38.368C224.223,369.657,234.741,366.606,242.2,359.244Z" transform="translate(-212.785 -330.211)" fill="#fff"/>
    </g>
    <g id="Group_506" data-name="Group 506" transform="translate(158.803 369.18)">
      <path id="Path_627" data-name="Path 627" d="M168.809,417.87V406.01h3.38V408.1a6,6,0,0,1,5.234-2.518c3.6,0,5.451,2.26,5.451,5.424v6.865h-3.38v-6.651a2.707,2.707,0,0,0-3.053-2.992,4.692,4.692,0,0,0-4.252,2.518v7.124Z" transform="translate(-168.809 -401.211)" fill="#fff"/>
      <path id="Path_628" data-name="Path 628" d="M210.242,406.319v11.859h-3.381V416.09a5.994,5.994,0,0,1-5.233,2.518c-3.6,0-5.452-2.26-5.452-5.424v-6.866h3.38v6.651a2.707,2.707,0,0,0,3.053,2.992,4.692,4.692,0,0,0,4.252-2.518v-7.124Z" transform="translate(-180.238 -401.52)" fill="#fff"/>
      <path id="Path_629" data-name="Path 629" d="M233.982,415.514a7.433,7.433,0,0,1-3.947,1.141c-2.53,0-4.492-1.356-4.492-4.025v-5.79h-2.224v-2.5h2.224v-2.755h3.38v2.755h4.95v2.5h-4.95v5.209c0,1.2.916,1.829,2.115,1.829a5.2,5.2,0,0,0,2.246-.624Z" transform="translate(-191.574 -399.544)" fill="#fff"/>
      <path id="Path_630" data-name="Path 630" d="M244.622,417.993V406.134H248v2.454a5.888,5.888,0,0,1,5.364-2.711v2.862c-2.617,0-4.645,1.012-5.364,3.1v6.156Z" transform="translate(-200.471 -401.335)" fill="#fff"/>
      <path id="Path_631" data-name="Path 631" d="M261.917,399.779c0-1.012.851-1.7,2.05-1.7a1.714,1.714,0,1,1,0,3.379A1.825,1.825,0,0,1,261.917,399.779Zm3.773,14.958H262.31V402.877h3.381Z" transform="translate(-207.694 -398.078)" fill="#fff"/>
      <path id="Path_632" data-name="Path 632" d="M308.231,410.982v6.888h-3.358v-6.715a2.6,2.6,0,0,0-2.9-2.927,4.175,4.175,0,0,0-3.838,2.5v4.8l.022,2.346h-3.38v-6.715a2.6,2.6,0,0,0-2.9-2.927,4.14,4.14,0,0,0-3.816,2.432v7.21h-3.38V406.01h3.38v2.109a5.5,5.5,0,0,1,4.928-2.54,4.617,4.617,0,0,1,4.8,3.164,5.568,5.568,0,0,1,5.3-3.164C306.618,405.58,308.231,407.926,308.231,410.982Z" transform="translate(-217.201 -401.211)" fill="#45a735"/>
      <path id="Path_633" data-name="Path 633" d="M334.479,415.773a6.778,6.778,0,0,0,4.623-1.528l1.809,1.958a9.579,9.579,0,0,1-6.607,2.109c-4.95,0-7.807-2.454-7.807-6.392,0-3.96,2.835-6.414,7.567-6.414,4.361,0,7.284,2.195,7.284,6.391a2.292,2.292,0,0,1-.087.775H329.747C330.053,414.8,331.688,415.773,334.479,415.773Zm-4.579-5.23,8.221-.043c-.523-1.7-1.9-2.453-4.034-2.453C331.884,408.046,330.379,408.864,329.9,410.543Z" transform="translate(-234.666 -401.181)" fill="#45a735"/>
      <path id="Path_634" data-name="Path 634" d="M362.957,415.514a7.437,7.437,0,0,1-3.947,1.141c-2.53,0-4.492-1.356-4.492-4.025v-5.79h-2.224v-2.5h2.224v-2.755h3.38v2.755h4.95v2.5H357.9v5.209c0,1.2.916,1.829,2.116,1.829a5.2,5.2,0,0,0,2.246-.624Z" transform="translate(-245.439 -399.544)" fill="#45a735"/>
      <path id="Path_635" data-name="Path 635" d="M372.846,417.993V406.134h3.38v2.454a5.89,5.89,0,0,1,5.364-2.711v2.862c-2.617,0-4.644,1.012-5.364,3.1v6.156Z" transform="translate(-254.022 -401.335)" fill="#45a735"/>
      <path id="Path_636" data-name="Path 636" d="M389.394,399.779c0-1.012.85-1.7,2.049-1.7a1.714,1.714,0,1,1,0,3.379A1.824,1.824,0,0,1,389.394,399.779Zm3.772,14.958h-3.38V402.877h3.38Z" transform="translate(-260.933 -398.078)" fill="#45a735"/>
      <path id="Path_637" data-name="Path 637" d="M405.8,418.313c-4.71,0-7.611-2.475-7.611-6.392,0-3.939,2.9-6.414,7.611-6.414,3.424,0,5.691,1.463,6.695,3.271l-3.119,1.2a3.7,3.7,0,0,0-3.554-1.786c-2.508,0-4.361,1.226-4.361,3.724,0,2.453,1.853,3.7,4.361,3.7a3.85,3.85,0,0,0,3.642-1.851l3.1,1.227C411.559,416.849,409.269,418.313,405.8,418.313Z" transform="translate(-264.607 -401.181)" fill="#45a735"/>
      <path id="Path_638" data-name="Path 638" d="M437.415,414.266c0,2.281-2.2,4.046-6.585,4.046a11.962,11.962,0,0,1-7.479-2.346l1.635-1.981a9.279,9.279,0,0,0,5.932,1.787c1.919,0,3.379-.345,3.379-1.27,0-.861-1.33-1.183-3.881-1.356-3.379-.236-6.607-1.055-6.607-3.7,0-2.3,2.18-3.939,6.716-3.939a12.059,12.059,0,0,1,6.345,1.765l-1.548,2.109a8.83,8.83,0,0,0-4.972-1.334c-1.4,0-3.38.216-3.38,1.184,0,.9,1.635,1.055,3.9,1.184C434.646,410.629,437.415,411.727,437.415,414.266Z" transform="translate(-275.115 -401.181)" fill="#45a735"/>
    </g>
  </g>
</svg>
